<?xml version="1.0" standalone="no"?>
<!DOCTYPE svg PUBLIC "-//W3C//DTD SVG 20010904//EN"
 "http://www.w3.org/TR/2001/REC-SVG-20010904/DTD/svg10.dtd">
<svg version="1.0" xmlns="http://www.w3.org/2000/svg"
 width="88.000000pt" height="91.000000pt" viewBox="0 0 88.000000 91.000000"
 preserveAspectRatio="xMidYMid meet">

<g transform="translate(0.000000,91.000000) scale(0.100000,-0.100000)"
fill="#000000" stroke="none">
<path d="M330 637 c-47 -16 -80 -68 -80 -124 0 -94 111 -155 192 -105 43 27
61 59 61 111 0 90 -86 149 -173 118z m111 -56 c37 -37 38 -79 3 -120 -64 -76
-188 -7 -154 85 26 68 100 85 151 35z"/>
<path d="M346 562 c-2 -4 -1 -14 5 -22 5 -8 9 -27 9 -42 0 -40 27 -36 32 5 5
47 -1 67 -22 67 -10 0 -21 -4 -24 -8z"/>
<path d="M550 479 c0 -6 14 -24 30 -39 62 -58 27 -160 -56 -160 -29 0 -43 7
-68 35 -38 41 -46 43 -46 11 0 -54 100 -101 160 -76 52 21 80 64 80 122 0 44
-4 54 -34 84 -33 33 -66 45 -66 23z"/>
<path d="M517 403 c-4 -10 -14 -28 -23 -40 -15 -21 -15 -23 1 -30 23 -8 77 49
69 72 -8 21 -40 19 -47 -2z"/>
</g>
</svg>
